<svg xmlns="http://www.w3.org/2000/svg" xmlns:xlink="http://www.w3.org/1999/xlink" version="1.1" x="0px" y="0px" viewBox="0 0 41 51.25" enable-background="new 0 0 41 41" xml:space="preserve"><path d="M29.867,23.068c-0.638-0.344-0.979-1.004-1.164-1.645c0.886-0.789,1.664-2.166,2.16-4.504  c1.262-5.943-3.531-6.424-4.768-6.424s-6.03,0.48-4.768,6.424c0.497,2.338,1.274,3.715,2.16,4.504  c-0.184,0.641-0.525,1.301-1.164,1.645c-1.486,0.8-4.571,1.6-5.372,3.543c-0.8,1.942-1.828,8.229-1.828,8.229h21.942  c0,0-1.028-6.286-1.829-8.229C34.438,24.668,31.353,23.868,29.867,23.068z"/><path d="M14.264,15.969c-0.82,0.441-2.524,0.883-2.966,1.956c-0.441,1.073-1.009,4.544-1.009,4.544h10.979  c0.212-0.096,0.41-0.188,0.583-0.281c0.166-0.089,0.306-0.246,0.427-0.452c-0.01-0.058-0.021-0.117-0.033-0.181  c-0.856-1.034-1.483-2.486-1.895-4.428c-0.02-0.094-0.031-0.184-0.048-0.275c-0.646-0.373-1.402-0.629-1.873-0.883  c-0.353-0.189-0.541-0.554-0.643-0.908c0.489-0.436,0.918-1.195,1.192-2.486c0.697-3.281-1.949-3.547-2.632-3.547  s-3.33,0.266-2.633,3.547c0.274,1.291,0.704,2.051,1.193,2.486C14.805,15.415,14.616,15.779,14.264,15.969z"/><path d="M35.756,25.503c0.158,0.226,0.299,0.465,0.407,0.728c0.29,0.703,0.6,1.904,0.885,3.184c1.94-0.141,3.475-1.74,3.475-3.717  v-0.194H35.756z"/><path d="M16.028,26.23c0.108-0.263,0.249-0.502,0.407-0.728H0.478v0.194c0,2.068,1.676,3.744,3.745,3.744h10.916  C15.424,28.152,15.736,26.938,16.028,26.23z"/><path d="M5.743,10.457c0-1.193,0.183-1.869,0.74-2.229c0.398-0.256,0.985-0.35,1.839-0.35h24.356c0.854,0,1.441,0.094,1.839,0.351  c0.557,0.358,0.74,1.034,0.74,2.228v13.589h1.719V10.457c0-1.341-0.256-2.338-0.805-3.033C35.487,6.557,34.35,6.16,32.678,6.16  H8.322c-1.672,0-2.809,0.396-3.493,1.264C4.28,8.119,4.024,9.116,4.024,10.457v13.589h1.719V10.457z"/><text x="0" y="56" fill="#000000" font-size="5px" font-weight="bold" font-family="'Helvetica Neue', Helvetica, Arial-Unicode, Arial, Sans-serif">Created by Ethan Nam</text><text x="0" y="61" fill="#000000" font-size="5px" font-weight="bold" font-family="'Helvetica Neue', Helvetica, Arial-Unicode, Arial, Sans-serif">from the Noun Project</text></svg>