<svg xmlns="http://www.w3.org/2000/svg" xmlns:xlink="http://www.w3.org/1999/xlink" version="1.1" x="0px" y="0px" viewBox="0 0 32 40" enable-background="new 0 0 32 32" xml:space="preserve"><path d="M24.269,18.262c-0.365-0.155-0.703-0.3-0.971-0.443c-0.271-0.146-0.481-0.416-0.629-0.806  c0.726-0.74,1.243-1.873,1.578-3.453c0.354-1.664,0.148-2.982-0.609-3.92c-1.068-1.316-2.861-1.42-3.385-1.42  c-0.525,0-2.318,0.104-3.386,1.42c-0.759,0.938-0.964,2.256-0.61,3.92c0.336,1.58,0.852,2.713,1.577,3.453  c-0.146,0.39-0.356,0.66-0.628,0.807c-0.268,0.143-0.604,0.287-0.97,0.442c-1.231,0.525-2.765,1.18-3.282,2.438  c-0.619,1.5-1.383,6.141-1.414,6.337c-0.02,0.11,0.014,0.223,0.085,0.308s0.179,0.134,0.29,0.134H28.59  c0.111,0,0.218-0.049,0.29-0.134c0.071-0.085,0.104-0.197,0.085-0.308c-0.032-0.196-0.796-4.837-1.414-6.337  C27.033,19.441,25.5,18.787,24.269,18.262z M12.365,26.718c0.209-1.21,0.813-4.566,1.291-5.728c0.401-0.972,1.775-1.559,2.879-2.029  c0.381-0.163,0.741-0.316,1.031-0.474c0.507-0.271,0.866-0.77,1.069-1.479c0.04-0.141-0.003-0.291-0.112-0.389  c-0.688-0.611-1.199-1.695-1.521-3.218c-0.304-1.429-0.15-2.534,0.457-3.284c0.878-1.083,2.482-1.139,2.795-1.139  c0.312,0,1.916,0.056,2.793,1.139c0.607,0.75,0.762,1.855,0.458,3.284c-0.323,1.523-0.836,2.606-1.522,3.218  c-0.109,0.098-0.154,0.249-0.113,0.39c0.205,0.709,0.564,1.206,1.07,1.478c0.291,0.157,0.65,0.311,1.031,0.474  c1.104,0.471,2.479,1.058,2.879,2.029c0.479,1.161,1.083,4.518,1.291,5.728H12.365z"/><path d="M10.858,13.358c0.221-0.094,0.423-0.181,0.583-0.268c0.203-0.108,0.363-0.277,0.488-0.492  c0.238,0.106,0.57,0.221,0.915,0.221s0.677-0.114,0.915-0.221c0.125,0.215,0.285,0.384,0.488,0.492  c0.16,0.087,0.362,0.174,0.582,0.268c0.217,0.093,0.454,0.193,0.676,0.309c-0.064-0.313-0.105-0.611-0.135-0.902  c-0.082-0.036-0.163-0.071-0.242-0.104c-0.196-0.084-0.377-0.161-0.521-0.238c-0.091-0.05-0.167-0.136-0.229-0.26  c0.383-0.432,0.658-1.06,0.838-1.906c0.207-0.972,0.082-1.749-0.371-2.308c-0.637-0.786-1.692-0.848-2.001-0.848  s-1.364,0.062-2.002,0.848c-0.452,0.559-0.577,1.336-0.371,2.308c0.181,0.847,0.456,1.475,0.839,1.906  c-0.062,0.124-0.139,0.21-0.229,0.26c-0.144,0.077-0.324,0.154-0.521,0.238c-0.709,0.302-1.591,0.679-1.903,1.438  c-0.349,0.846-0.774,3.428-0.792,3.537c-0.019,0.109,0.014,0.222,0.086,0.307c0.071,0.085,0.178,0.135,0.289,0.135h6.563  c0.393-0.194,0.782-0.363,1.135-0.514c0.21-0.09,0.395-0.17,0.564-0.247H8.69c0.158-0.896,0.449-2.396,0.669-2.929  C9.553,13.915,10.277,13.606,10.858,13.358z M11.214,10.098c-0.156-0.737-0.082-1.299,0.219-1.671  c0.437-0.538,1.252-0.566,1.411-0.566s0.975,0.028,1.411,0.566c0.301,0.372,0.375,0.934,0.218,1.671  c-0.171,0.803-0.435,1.368-0.784,1.683c-0.127,0.079-0.517,0.279-0.845,0.279c-0.329,0-0.718-0.201-0.845-0.281  C11.65,11.465,11.385,10.899,11.214,10.098z"/><path d="M11.548,20.122c0.074-0.18,0.167-0.34,0.262-0.5H4.423V7.182c0-1.048,0.853-1.899,1.9-1.899h19.352  c1.049,0,1.9,0.852,1.9,1.899v11.167c0.278,0.223,0.532,0.477,0.76,0.757V7.182c0-1.467-1.193-2.66-2.66-2.66H6.324  c-1.467,0-2.66,1.193-2.66,2.66v12.44H0.783c-0.21,0-0.38,0.17-0.38,0.379v0.148c0,1.779,1.447,3.227,3.226,3.227h7.045  c0.055-0.254,0.109-0.508,0.167-0.76H3.628c-1.281,0-2.337-0.983-2.455-2.234h10.277C11.484,20.291,11.517,20.2,11.548,20.122z"/><path d="M31.216,19.622h-2.521c0.095,0.16,0.188,0.322,0.261,0.5c0.033,0.079,0.064,0.17,0.098,0.26h1.771  c-0.076,0.816-0.557,1.514-1.236,1.902c0.059,0.25,0.115,0.507,0.172,0.764c1.082-0.521,1.836-1.619,1.836-2.898v-0.148  C31.597,19.792,31.427,19.622,31.216,19.622z"/><text x="0" y="47" fill="#000000" font-size="5px" font-weight="bold" font-family="'Helvetica Neue', Helvetica, Arial-Unicode, Arial, Sans-serif">Created by Ethan Nam</text><text x="0" y="52" fill="#000000" font-size="5px" font-weight="bold" font-family="'Helvetica Neue', Helvetica, Arial-Unicode, Arial, Sans-serif">from the Noun Project</text></svg>