<svg xmlns="http://www.w3.org/2000/svg" viewBox="0 0 32 40" x="0px" y="0px"><g><path d="M27,16H26a2.97137,2.97137,0,0,0-.699-1.90179A5.38056,5.38056,0,0,0,27,10.251c0-3.25879-3.14062-5.90918-7-5.90918S13,6.99219,13,10.251A5.1806,5.1806,0,0,0,13.80054,13H9a3.00328,3.00328,0,0,0-3,3V11.81573a3.00011,3.00011,0,1,0-2-.00006v4.36805A2.99121,2.99121,0,0,0,2,19v3a3,3,0,0,0,3,3H6a3.00328,3.00328,0,0,0,3,3H23a3.00328,3.00328,0,0,0,3-3h1a3,3,0,0,0,3-3V19A3,3,0,0,0,27,16ZM20,6.3418c2.75684,0,5,1.7539,5,3.90918s-2.24316,3.90918-5,3.90918a2.32084,2.32084,0,0,0-1.292.501,5.12676,5.12676,0,0,1-2.01465.84278,5.2042,5.2042,0,0,0,.42187-1.40821.99833.99833,0,0,0-.42382-.9248A3.61563,3.61563,0,0,1,15,10.251C15,8.0957,17.24316,6.3418,20,6.3418ZM5,8A1,1,0,1,1,4,9,1.00067,1.00067,0,0,1,5,8ZM5,23a1,1,0,0,1-1-1V19a1,1,0,0,1,1-1H6v5Zm18,3H9a1.00067,1.00067,0,0,1-1-1V16a1.00067,1.00067,0,0,1,1-1h5.72327a8.89666,8.89666,0,0,1-.63245,1.10352,1.00675,1.00675,0,0,0,.832,1.55468,7.93986,7.93986,0,0,0,5.16113-1.498,7.9071,7.9071,0,0,0,3.59046-.889A.98942.98942,0,0,1,24,16v9A1.00067,1.00067,0,0,1,23,26Zm5-4a1,1,0,0,1-1,1H26V18h1a1,1,0,0,1,1,1ZM13,20a1,1,0,1,1,1-1A1,1,0,0,1,13,20Zm7-1a1,1,0,1,1-1-1A1,1,0,0,1,20,19Zm-1.5,4a.99943.99943,0,0,1-1,1h-3a1,1,0,0,1,0-2h3A.99943.99943,0,0,1,18.5,23ZM17,9a.99943.99943,0,0,1,1-1h4a1,1,0,0,1,0,2H18A.99943.99943,0,0,1,17,9Zm0,3a.99943.99943,0,0,1,1-1h4a1,1,0,0,1,0,2H18A.99943.99943,0,0,1,17,12Z"/></g><text x="0" y="47" fill="#000000" font-size="5px" font-weight="bold" font-family="'Helvetica Neue', Helvetica, Arial-Unicode, Arial, Sans-serif">Created by Anconer Design</text><text x="0" y="52" fill="#000000" font-size="5px" font-weight="bold" font-family="'Helvetica Neue', Helvetica, Arial-Unicode, Arial, Sans-serif">from the Noun Project</text></svg>